<?xml version="1.0" encoding="UTF-8"?>
<svg id="Réteg_2" data-name="Réteg 2" xmlns="http://www.w3.org/2000/svg" viewBox="0 0 2554.44 1521.94">
  <defs>
    <style>
      .cls-1 {
        fill: #fff;
      }
    </style>
  </defs>
  <g id="Layer_1" data-name="Layer 1">
    <path class="cls-1" d="m981.74,1521.94c-67.95,0-132.98-17.83-181.96-36.2-23.91-8.97-47.09-19.25-69.51-29.2-41.27-18.3-80.24-35.59-122.07-44.64-43.5-9.45-93.57-10.78-153.07-4.07-7.13.81-13.57-4.33-14.37-11.46-.8-7.13,4.33-13.57,11.46-14.37,62.36-7.03,115.18-5.55,161.49,4.5,44.43,9.61,86.46,28.26,127.11,46.29,22.08,9.79,44.91,19.92,68.1,28.62,68.22,25.59,168.98,50.19,261.61,22.06,55.3-16.79,105.7-53.06,143.43-82.78,5.81-4.59,11.71-9.33,17.41-13.91,33.77-27.15,68.69-55.22,109.48-69.94,33.98-12.26,73.2-15.93,116.58-10.92,37.49,4.33,76.94,15.21,114.11,31.44,6.58,2.87,9.58,10.54,6.71,17.12-2.87,6.58-10.54,9.58-17.12,6.71-75.51-32.98-154.56-40.42-211.46-19.89-36.71,13.25-68.43,38.75-102.01,65.75-5.75,4.62-11.69,9.4-17.61,14.07-39.53,31.14-92.52,69.19-151.97,87.24-31.83,9.67-64.41,13.6-96.33,13.61Zm1297.15-62.98c-41.06,0-81.09-5.56-119.29-16.6-34.68-10-68.73-24.94-101.21-44.4-6.16-3.69-8.16-11.68-4.47-17.83s11.68-8.16,17.83-4.47c30.55,18.31,62.52,32.34,95.05,41.72,42.71,12.34,87.9,17.38,134.33,15.01,7.16-.35,13.28,5.15,13.65,12.32.37,7.17-5.15,13.28-12.32,13.65-7.89.4-15.76.61-23.58.61Zm29.42-97.02c-56.69,0-119.66-15.19-191.5-46.09-8-3.44-15.94-6.99-23.81-10.63-.21-.09-.41-.19-.62-.29-37.39-17.33-73.35-36.67-108.32-55.48-16.2-8.71-32.96-17.72-49.57-26.38-69.45-36.2-161.79-80-260.29-97.49-79.11-14.08-159.51-11.36-232.52,7.87-50.08,13.2-96.69,34.07-146.04,56.16-23.11,10.34-47,21.04-71.09,30.77-83.15,33.7-158.12,52.02-229.18,56-10.37.59-20.72.87-31.04.87-98.84,0-194.57-25.74-276.52-51.66-23.38-7.4-46.97-15.29-69.79-22.92-61.12-20.45-120.22-40.22-179.35-52.6-.93-.09-1.85-.28-2.74-.57-38.14-7.84-76.33-12.57-115.08-12.39-91.93.46-196.31,29.65-301.85,84.4-6.37,3.31-14.22.82-17.53-5.55-3.31-6.37-.82-14.22,5.55-17.53,76.14-39.5,192.37-86.71,313.7-87.32,31.61-.15,63.08,2.91,94.33,8.16-33.24-59.48-66.47-118.95-99.71-178.42-71.18-127.36-142.35-254.71-213.49-382.1-5.19-9.25-5.29-18.72-.26-25.96,5.02-7.24,13.92-10.46,24.39-8.83,291.9,44.6,537.7,82.16,785.8,120.12,122.82-209.41,246.84-420.92,369.83-630.74,5.09-8.66,12.71-13.52,20.9-13.34,8.19.18,15.57,5.35,20.26,14.19l16.96,31.81c.31.49.58,1.01.83,1.55l119.95,224.97c65.07,122.04,130.14,244.09,195.21,366.12l840.54-89.84c10.36-1.13,19.02,2.37,23.74,9.6,4.71,7.22,4.43,16.55-.77,25.58-147.2,257.18-279.03,487.44-402.71,703.38,3.51,1.56,7.03,3.1,10.56,4.62,80.06,34.43,147.9,48.42,207.41,42.75,65.46-6.31,136.04-38.09,198.72-89.48,5.55-4.55,13.74-3.74,18.3,1.81,4.55,5.55,3.74,13.74-1.81,18.3-66.63,54.62-142.17,88.45-212.73,95.25-9.37.89-18.93,1.34-28.66,1.34Zm-733.95-271.23c34.61,0,69.62,3.08,104.39,9.27,101.98,18.12,196.66,62.98,267.76,100.04,16.76,8.74,33.59,17.79,49.87,26.54,31.31,16.84,63.42,34.11,96.45,49.85,122.12-213.23,252.19-440.42,397.17-693.7-195.38,65.43-390.75,130.87-586.12,196.3-53.63,17.96-107.25,35.92-160.88,53.88-.48.19-.96.35-1.45.49-141.39,47.35-282.8,94.71-424.2,142.07l27.22,18.58c49.97,34.1,99.92,68.19,149.86,102.31,26.18-3.74,52.94-5.62,79.94-5.62Zm-658.81,158.43c25.9,2.16,52.08,2.76,78.35,1.26,68.18-3.82,140.43-21.53,220.9-54.14,23.66-9.56,47.33-20.15,70.22-30.4,48.13-21.54,97.9-43.82,150.04-57.57,7.54-1.98,15.14-3.8,22.81-5.45-42.65-29.13-85.3-58.23-127.97-87.36l-41.4-28.26-85.39,59.97c-95.84,67.31-191.7,134.63-287.56,201.93Zm-467.13-123.46c60.23,12.97,119.62,32.84,177.84,52.32,22.71,7.6,46.2,15.46,69.38,22.79,55.2,17.46,116.75,34.84,180.94,43.94,103.87-72.92,207.73-145.86,311.58-218.8l72.47-50.9c-143.71-53.08-287.45-106.15-431.18-159.23-.37-.12-.73-.25-1.09-.4-15.88-5.86-31.77-11.73-47.65-17.59-216.5-79.95-433.01-159.9-649.53-239.87,68.94,123.44,137.89,246.82,206.85,370.21,36.79,65.84,73.59,131.67,110.38,197.52Zm796.67-184.1c14.5,5.36,29,10.71,43.51,16.07,20.69-6.93,41.38-13.86,62.06-20.78-12.89-325.36-23.68-597.83-34.83-880.45l-13.97-26.2s-.07.12-.1.17c-18.89,303.8-37.78,607.51-56.67,911.2Zm-392.63-144.99c122.39,45.2,244.79,90.39,367.16,135.59,17.66-284,35.33-567.99,52.99-852.08-114.01,194.49-228.76,390.18-342.45,584.02-.25.49-.53.96-.83,1.42-25.68,43.79-51.32,87.5-76.88,131.06ZM1343.92,109.13c10.32,261.52,20.47,517.74,32.41,819.15,114.37-38.3,228.73-76.6,343.1-114.91-27.44-51.45-54.86-102.87-82.29-154.31-.17-.29-.32-.58-.47-.88-66.37-124.47-132.73-248.94-199.1-373.42l-93.64-175.63Zm324.99,554.26c25.17,47.2,50.35,94.41,75.52,141.61,50.39-16.88,100.79-33.75,151.17-50.63,168.42-56.41,336.85-112.82,505.27-169.22l-731.96,78.24Zm-1441.59-97.63c187.47,69.24,374.94,138.46,562.39,207.68,12.65,4.67,25.31,9.35,37.97,14.02,23.26-39.65,46.57-79.39,69.94-119.23-214.24-32.77-427.29-65.34-670.3-102.47Z"/>
  </g>
</svg>